<svg width="25" height="25" viewBox="0 0 25 25" fill="none" xmlns="http://www.w3.org/2000/svg">
<g clip-path="url(#clip0_39_251)">
<path d="M25 20.8855C25 21.1065 24.9122 21.3184 24.7559 21.4747C24.5996 21.631 24.3877 21.7188 24.1667 21.7188H0.833333C0.61232 21.7188 0.400358 21.631 0.244078 21.4747C0.0877973 21.3184 0 21.1065 0 20.8855C0 20.6644 0.0877973 20.4525 0.244078 20.2962C0.400358 20.1399 0.61232 20.0521 0.833333 20.0521H24.1667C24.3877 20.0521 24.5996 20.1399 24.7559 20.2962C24.9122 20.4525 25 20.6644 25 20.8855ZM0.864583 9.44587C0.815018 9.27111 0.823915 9.08494 0.889917 8.9157C0.95592 8.74646 1.07541 8.60343 1.23021 8.50837L12.0635 1.8417C12.1948 1.76099 12.3459 1.71826 12.5 1.71826C12.6541 1.71826 12.8052 1.76099 12.9365 1.8417L23.7698 8.50837C23.9246 8.60331 24.0442 8.74625 24.1103 8.91541C24.1765 9.08458 24.1855 9.27072 24.1361 9.4455C24.0867 9.62028 23.9815 9.77413 23.8366 9.88364C23.6917 9.99314 23.515 10.0523 23.3333 10.0521H20.8333V16.7188H22.5C22.721 16.7188 22.933 16.8066 23.0893 16.9629C23.2455 17.1191 23.3333 17.3311 23.3333 17.5521C23.3333 17.7731 23.2455 17.9851 23.0893 18.1414C22.933 18.2977 22.721 18.3855 22.5 18.3855H2.5C2.27899 18.3855 2.06702 18.2977 1.91074 18.1414C1.75446 17.9851 1.66667 17.7731 1.66667 17.5521C1.66667 17.3311 1.75446 17.1191 1.91074 16.9629C2.06702 16.8066 2.27899 16.7188 2.5 16.7188H4.16667V10.0521H1.66667C1.4852 10.0522 1.30867 9.993 1.1639 9.88358C1.01913 9.77416 0.914034 9.62047 0.864583 9.44587ZM14.1667 15.8855C14.1667 16.1065 14.2545 16.3184 14.4107 16.4747C14.567 16.631 14.779 16.7188 15 16.7188C15.221 16.7188 15.433 16.631 15.5893 16.4747C15.7455 16.3184 15.8333 16.1065 15.8333 15.8855V10.8855C15.8333 10.6644 15.7455 10.4525 15.5893 10.2962C15.433 10.1399 15.221 10.0521 15 10.0521C14.779 10.0521 14.567 10.1399 14.4107 10.2962C14.2545 10.4525 14.1667 10.6644 14.1667 10.8855V15.8855ZM9.16667 15.8855C9.16667 16.1065 9.25446 16.3184 9.41074 16.4747C9.56702 16.631 9.77899 16.7188 10 16.7188C10.221 16.7188 10.433 16.631 10.5893 16.4747C10.7455 16.3184 10.8333 16.1065 10.8333 15.8855V10.8855C10.8333 10.6644 10.7455 10.4525 10.5893 10.2962C10.433 10.1399 10.221 10.0521 10 10.0521C9.77899 10.0521 9.56702 10.1399 9.41074 10.2962C9.25446 10.4525 9.16667 10.6644 9.16667 10.8855V15.8855Z" fill="white"/>
</g>
<defs>
<clipPath id="clip0_39_251">
<rect width="25" height="25" fill="white"/>
</clipPath>
</defs>
</svg>
