<svg width="40" height="40" viewBox="0 0 40 40" fill="none" xmlns="http://www.w3.org/2000/svg">
<path d="M19.9999 33.3333C23.5361 33.3333 26.9275 31.9285 29.428 29.4281C31.9285 26.9276 33.3333 23.5362 33.3333 20C33.3333 16.4637 31.9285 13.0724 29.428 10.5719C26.9275 8.07139 23.5361 6.66663 19.9999 6.66663C16.4637 6.66663 13.0723 8.07139 10.5718 10.5719C8.07134 13.0724 6.66659 16.4637 6.66659 20C6.66659 23.5362 8.07134 26.9276 10.5718 29.4281C13.0723 31.9285 16.4637 33.3333 19.9999 33.3333ZM19.9999 3.3333C22.1886 3.3333 24.3559 3.76439 26.378 4.60197C28.4001 5.43955 30.2374 6.66721 31.785 8.21485C33.3327 9.76249 34.5603 11.5998 35.3979 13.6219C36.2355 15.644 36.6666 17.8113 36.6666 20C36.6666 24.4202 34.9106 28.6595 31.785 31.7851C28.6594 34.9107 24.4202 36.6666 19.9999 36.6666C10.7833 36.6666 3.33325 29.1666 3.33325 20C3.33325 15.5797 5.0892 11.3405 8.21481 8.21485C11.3404 5.08925 15.5796 3.3333 19.9999 3.3333ZM20.8333 11.6666V20.4166L28.3333 24.8666L27.0833 26.9166L18.3333 21.6666V11.6666H20.8333Z" fill="#F8F8F8"/>
</svg>
