<svg width="1643" height="4907" viewBox="0 0 1643 4907" fill="none" xmlns="http://www.w3.org/2000/svg">
<path d="M1086.5 -173.927C1187 -175.427 1388.86 -155.159 1265.66 0.57576C1111.65 195.245 1657.28 347.44 1569.27 195.245C1481.27 43.0493 812.432 216.481 1353.66 474.86C1786.64 681.563 935.638 735.598 456.013 736.778C288.149 744.448 30.5089 821.388 342.856 1067.78C733.29 1375.78 1439.71 1506.76 1396.68 1694.39C1353.66 1882.02 -190.358 2698.07 342.856 2698.07C1516 2698.07 447.144 3169.97 908 3330.07C1048.54 3378.9 1642.95 3296.24 1612 3606.07C1554.34 4183.35 135.2 3909.27 292 4226.07C488 4622.07 1612 4770.07 1642 4906.07" stroke="#CA6CE6" stroke-width="1.5" stroke-linecap="square"/>
</svg>
