<svg width="31" height="26" viewBox="0 0 31 26" fill="none" xmlns="http://www.w3.org/2000/svg">
<path d="M19.1571 25.9088H19.2842L24.1786 11.9882L27.6747 1.94498C27.5003 1.73862 27.309 1.54726 27.1026 1.3729C26.5203 0.873227 25.8425 0.49722 25.1104 0.267742C24.3783 0.038265 23.6071 -0.0398845 22.8438 0.0380469L17.8858 14.1493L14.3897 24.0654C14.99 24.7173 15.7321 25.2226 16.5587 25.5422C17.3853 25.8618 18.2743 25.9872 19.1571 25.9088Z" fill="url(#paint0_linear_133_218)"/>
<path d="M28.501 25.9722C28.8692 25.9327 29.2259 25.8206 29.5505 25.6422C29.875 25.4638 30.1609 25.2227 30.3915 24.933C30.6221 24.6432 30.7929 24.3105 30.8939 23.9543C30.9949 23.598 31.0242 23.2252 30.98 22.8575L29.0095 5.05949C28.8745 3.82099 28.3388 2.66042 27.484 1.75414L26.9755 1.24563C26.391 0.776473 25.7192 0.428115 24.999 0.220787C24.2788 0.0134594 23.5246 -0.0487046 22.7802 0.0379045L25.3864 23.4932C25.4755 24.2335 25.8383 24.9136 26.4034 25.4001C26.6953 25.6339 27.0321 25.8053 27.3929 25.9037C27.7537 26.0021 28.1308 26.0254 28.501 25.9722Z" fill="#CA6CE6"/>
<path d="M6.95277 25.8456L12.3557 15.866L16.0425 9.0646L15.7247 8.74677C15.1605 8.23882 14.4944 7.85702 13.771 7.62684C13.0476 7.39666 12.2834 7.32339 11.5294 7.41192L11.4023 7.53905L6.06287 17.5187L2.37614 24.2565L2.69396 24.5107C3.26779 25.0238 3.94461 25.4083 4.67909 25.6385C5.41358 25.8687 6.18878 25.9393 6.95277 25.8456Z" fill="url(#paint1_linear_133_218)"/>
<path d="M7.01624 25.8455L5.87207 15.7387C5.82964 15.3645 5.71205 15.0027 5.52636 14.675C5.34067 14.3473 5.09072 14.0605 4.79148 13.8318C4.51327 13.5962 4.18765 13.4232 3.83669 13.3245C3.48574 13.2257 3.11766 13.2037 2.75742 13.2597C2.38362 13.2912 2.01998 13.3976 1.68813 13.5726C1.35629 13.7475 1.06304 13.9874 0.825814 14.278C0.588591 14.5686 0.412251 14.904 0.30729 15.2641C0.202328 15.6242 0.17089 16.0018 0.214845 16.3744L0.723359 20.8874C0.888394 22.2575 1.54307 23.5217 2.56673 24.4471C2.63029 24.5106 2.75742 24.5742 2.82098 24.7013C3.41023 25.1593 4.08427 25.4962 4.80429 25.6926C5.5243 25.8889 6.27605 25.9409 7.01624 25.8455Z" fill="#CA6CE6"/>
<path d="M19.2842 25.8455L17.7586 12.1792C17.5727 10.8842 16.9438 9.69364 15.9788 8.81024C15.9036 8.69295 15.792 8.60361 15.661 8.55598C14.513 7.6408 13.0543 7.20772 11.5929 7.34826H11.5293L12.9913 21.0782C13.1615 22.2821 13.7194 23.3979 14.5804 24.2564C15.1834 24.8737 15.9239 25.3396 16.7415 25.6158C17.559 25.892 18.4304 25.9707 19.2842 25.8455Z" fill="#CA6CE6"/>
<defs>
<linearGradient id="paint0_linear_133_218" x1="27.6747" y1="0.00876872" x2="-6.71366" y2="41.1985" gradientUnits="userSpaceOnUse">
<stop stop-color="#7F00FF"/>
<stop offset="1" stop-color="#E100FF"/>
</linearGradient>
<linearGradient id="paint1_linear_133_218" x1="16.0425" y1="7.37546" x2="-18.3459" y2="48.5652" gradientUnits="userSpaceOnUse">
<stop stop-color="#7F00FF"/>
<stop offset="1" stop-color="#E100FF"/>
</linearGradient>
</defs>
</svg>
