<svg width="142" height="43" viewBox="0 0 142 43" fill="none" xmlns="http://www.w3.org/2000/svg">
<path d="M31.2454 42.6931H31.4549L39.5201 19.7543L45.281 3.20477C44.9937 2.86473 44.6784 2.5494 44.3383 2.26208C43.3789 1.4387 42.2619 0.819104 41.0555 0.440964C39.849 0.0628231 38.5783 -0.0659542 37.3205 0.0624637L29.1505 23.3155L23.3896 39.6555C24.3788 40.7298 25.6017 41.5624 26.9638 42.0891C28.3259 42.6158 29.7907 42.8224 31.2454 42.6931Z" fill="url(#paint0_linear_105_47)"/>
<path d="M46.6426 42.7978C47.2493 42.7329 47.8372 42.548 48.3719 42.2541C48.9067 41.9601 49.3777 41.5628 49.7578 41.0854C50.1378 40.6079 50.4192 40.0597 50.5857 39.4727C50.7522 38.8856 50.8004 38.2713 50.7276 37.6654L47.4805 8.3372C47.258 6.29636 46.3753 4.38393 44.9667 2.89054L44.1287 2.05259C43.1657 1.2795 42.0586 0.705462 40.8719 0.36382C39.6851 0.0221788 38.4423 -0.0802571 37.2156 0.0624603L41.5101 38.7128C41.6571 39.9327 42.2548 41.0535 43.186 41.8551C43.667 42.2404 44.222 42.5228 44.8165 42.685C45.4111 42.8471 46.0326 42.8855 46.6426 42.7978Z" fill="#CA6CE6"/>
<path d="M11.1345 42.5883L20.0377 26.1436L26.1128 14.936L25.5891 14.4123C24.6594 13.5753 23.5619 12.9462 22.3698 12.5669C21.1777 12.1876 19.9184 12.0668 18.676 12.2127L18.4665 12.4222L9.66806 28.8669L3.59293 39.9698L4.11665 40.3887C5.06222 41.2341 6.17751 41.8677 7.38782 42.247C8.59813 42.6264 9.87553 42.7428 11.1345 42.5883Z" fill="url(#paint1_linear_105_47)"/>
<path d="M11.2393 42.5883L9.35387 25.9341C9.28394 25.3174 9.09017 24.7212 8.78419 24.1813C8.47821 23.6413 8.06632 23.1687 7.57323 22.7918C7.11479 22.4036 6.57821 22.1185 5.9999 21.9558C5.42158 21.7931 4.81505 21.7568 4.22144 21.8491C3.60547 21.9011 3.00625 22.0764 2.45943 22.3647C1.91261 22.6529 1.42937 23.0482 1.03847 23.5271C0.647567 24.006 0.356988 24.5586 0.184029 25.152C0.0110693 25.7455 -0.0407352 26.3677 0.0316944 26.9816L0.869642 34.4184C1.14159 36.6759 2.22039 38.7591 3.90721 40.284C4.01195 40.3887 4.22144 40.4935 4.32618 40.703C5.29716 41.4577 6.40787 42.0128 7.59433 42.3364C8.7808 42.66 10.0196 42.7456 11.2393 42.5883Z" fill="#CA6CE6"/>
<path d="M31.4548 42.5883L28.941 20.0685C28.6347 17.9346 27.5983 15.9728 26.0082 14.5171C25.8842 14.3238 25.7002 14.1766 25.4844 14.0981C23.5928 12.59 21.189 11.8764 18.7809 12.108H18.6761L21.0852 34.7326C21.3657 36.7165 22.2849 38.555 23.7038 39.9697C24.6974 40.987 25.9177 41.7546 27.2649 42.2098C28.6121 42.6649 30.0479 42.7946 31.4548 42.5883Z" fill="#CA6CE6"/>
<path d="M72.0187 26.0189H67.0758C66.9183 26.0189 66.8855 25.9664 66.8855 25.8123V15.0604C66.8855 14.7652 66.6428 14.5225 66.3509 14.5225H66.2984C66.0032 14.5225 65.7605 14.7652 65.7605 15.0604V26.606C65.7605 26.9012 66.0032 27.1439 66.2984 27.1439H72.0187C72.3139 27.1439 72.5534 26.9012 72.5534 26.606V26.5535C72.5534 26.2616 72.3139 26.0189 72.0187 26.0189Z" fill="white"/>
<path d="M76.3056 18.8619H76.2728C75.9776 18.8619 75.7349 19.1047 75.7349 19.3999V26.606C75.7349 26.9012 75.9776 27.1439 76.2728 27.1439H76.3056C76.6008 27.1439 76.8402 26.9012 76.8402 26.606V19.3999C76.8402 19.1047 76.6008 18.8619 76.3056 18.8619Z" fill="white"/>
<path d="M84.1876 18.6553C83.5152 18.6553 82.564 18.8291 81.9769 19.4851C81.9244 19.5376 81.8359 19.5179 81.8359 19.4327C81.8359 19.3999 81.8359 19.4327 81.8359 19.3802C81.8359 19.0522 81.5768 18.8619 81.3176 18.8619H81.2488C80.9568 18.8619 80.7141 19.0883 80.7141 19.3802L80.7305 26.606C80.7305 26.9012 80.9732 27.1439 81.2684 27.1439H81.3176C81.6128 27.1439 81.8555 26.9012 81.8555 26.606C81.8555 26.606 81.8555 22.0435 81.8555 21.8369C81.8555 20.4003 82.6165 19.6918 84.1876 19.6918C85.3816 19.6918 86.6771 20.4363 86.6771 22.1452V26.606C86.6771 26.9012 86.9199 27.1439 87.2118 27.1439H87.2479C87.5431 27.1439 87.7825 26.9012 87.7825 26.606V22.0763C87.7825 19.3999 85.762 18.6553 84.1876 18.6553Z" fill="white"/>
<path d="M99.902 22.1288C99.7806 21.2662 99.4166 20.5216 98.813 19.9181C97.9471 19.0522 96.927 18.6553 95.7167 18.6553C94.5064 18.6553 93.4863 19.0522 92.6237 19.9181C91.7774 20.7643 91.3445 21.7844 91.3445 22.9947C91.3445 24.2051 91.7774 25.2251 92.6237 26.0878C93.4863 26.934 94.5064 27.367 95.7167 27.367C96.927 27.367 97.9471 26.934 98.813 26.0714C98.8819 26.0025 98.9508 25.9336 99.0197 25.8451C99.2788 25.5695 99.2624 25.1727 98.9508 24.9627C98.5539 24.7233 98.3112 24.8939 97.9143 25.3793C97.5142 25.8647 96.599 26.3305 95.7167 26.3305C94.818 26.3305 94.057 25.8975 93.4371 25.2743C92.8664 24.7233 92.5548 24.0148 92.4859 23.1489C92.4662 22.8898 92.5187 22.8209 92.7614 22.8209H99.3805C99.8659 22.8209 99.9348 22.3879 99.902 22.1288ZM98.3801 21.7155H93.0566C92.7778 21.7155 92.6926 21.6959 92.8139 21.4728C92.9517 21.2465 93.1419 20.9874 93.4174 20.7119C94.057 20.0723 94.818 19.6918 95.7167 19.6918C96.599 19.6918 97.36 20.0723 97.9996 20.7119C98.2423 20.9382 98.4129 21.1612 98.5342 21.3875C98.6392 21.5581 98.7442 21.7155 98.3801 21.7155Z" fill="white"/>
<path d="M116.184 14.5225H113.022C112.727 14.5225 112.484 14.7652 112.484 15.0604V26.606C112.484 26.9012 112.727 27.1439 113.022 27.1439H113.071C113.366 27.1439 113.609 26.9012 113.609 26.606V22.5454C113.609 22.3879 113.662 22.3551 113.816 22.3551H116.184C118.585 22.3551 120.54 20.7807 120.54 18.3798C120.54 15.9755 118.585 14.5225 116.184 14.5225ZM116.184 21.2301H113.799C113.642 21.2301 113.609 21.1776 113.609 21.0235V15.8214C113.609 15.6836 113.662 15.6311 113.816 15.6311H116.184C117.981 15.6311 119.434 16.5823 119.434 18.3798C119.434 20.1772 117.981 21.2301 116.184 21.2301Z" fill="white"/>
<path d="M122.665 23.0275C122.665 25.4482 124.653 27.367 127.074 27.367C128.3 27.367 129.425 26.8651 130.167 25.9828C130.203 25.9336 130.324 25.8975 130.324 26.1042C130.324 26.2255 130.324 26.6224 130.324 26.6224C130.324 26.9176 130.567 27.1603 130.859 27.1603H130.895C131.187 27.1603 131.429 26.9176 131.429 26.6224V19.3999C131.429 19.1047 131.187 18.8619 130.895 18.8619H130.859C130.567 18.8619 130.324 19.1047 130.324 19.3999C130.324 19.6065 130.324 19.882 130.324 19.8984C130.324 20.1247 130.15 20.0723 130.098 19.987C129.425 19.1407 128.231 18.6553 127.038 18.6553C124.62 18.6553 122.665 20.6069 122.665 23.0275ZM123.771 23.0275C123.771 21.2301 125.224 19.6918 127.038 19.6918C128.838 19.6918 130.308 21.2301 130.308 23.0275C130.308 24.825 128.871 26.3305 127.074 26.3305C125.26 26.3305 123.771 24.825 123.771 23.0275Z" fill="white"/>
<path d="M137.324 28.5412L141.715 19.226C141.801 19.0194 141.696 18.8619 141.473 18.8619H141.023C140.797 18.8619 140.538 19.0194 140.436 19.226L138.344 24.169C138.153 24.5855 138.206 24.6019 137.999 24.169L135.923 19.226C135.821 19.0194 135.562 18.8619 135.336 18.8619H134.887C134.663 18.8619 134.559 19.0194 134.644 19.226L137.376 25.0513C137.53 25.3957 137.53 25.4482 137.376 25.7926L136.061 28.5412C135.959 28.7511 136.061 28.9217 136.287 28.9217H136.736C136.979 28.9217 137.238 28.7511 137.324 28.5412Z" fill="white"/>
<defs>
<linearGradient id="paint0_linear_105_47" x1="45.281" y1="0.0142182" x2="-11.3853" y2="67.888" gradientUnits="userSpaceOnUse">
<stop stop-color="#7F00FF"/>
<stop offset="1" stop-color="#E100FF"/>
</linearGradient>
<linearGradient id="paint1_linear_105_47" x1="26.1128" y1="12.1526" x2="-30.5535" y2="80.0265" gradientUnits="userSpaceOnUse">
<stop stop-color="#7F00FF"/>
<stop offset="1" stop-color="#E100FF"/>
</linearGradient>
</defs>
</svg>
