<svg width="46" height="47" viewBox="0 0 46 47" fill="none" xmlns="http://www.w3.org/2000/svg">
<path d="M10.3018 2.13961C10.1351 1.18904 11.2785 0.577074 11.9769 1.24308L25.4632 14.1032C25.693 14.3223 26.0133 14.4193 26.3261 14.3644L44.6807 11.1441C45.6313 10.9773 46.2433 12.1207 45.5773 12.8191L32.7172 26.3054C32.498 26.5353 32.401 26.8555 32.4559 27.1683L35.6763 45.5229C35.8431 46.4735 34.6997 47.0855 34.0012 46.4195L20.5149 33.5594C20.2851 33.3402 19.9648 33.2432 19.652 33.2981L1.29739 36.5185C0.346829 36.6853 -0.265142 35.5419 0.400867 34.8434L13.261 21.3571C13.4801 21.1273 13.5771 20.807 13.5222 20.4942L10.3018 2.13961Z" fill="#CA6CE6"/>
</svg>
